<svg width="20" height="20" viewBox="0 0 20 20" fill="none" xmlns="http://www.w3.org/2000/svg">
<path d="M4.44466 13.3334H1.85207C1.44355 13.3334 1.11133 12.9592 1.11133 12.5001V7.50008C1.11133 7.04091 1.44355 6.66675 1.85207 6.66675H4.44466" stroke="white" stroke-miterlimit="10" stroke-linecap="round" stroke-linejoin="round"/>
<path d="M4.64172 12.7512C4.528 12.6398 4.44434 12.3664 4.44434 12.1305V7.86872C4.44434 7.6328 4.528 7.35466 4.64172 7.24318L8.78224 2.56474C9.31525 1.95141 9.99989 2.184 9.99989 3.08362V16.7827C9.99989 17.7508 9.38028 18.1174 8.76296 17.4071L4.64172 12.7512Z" stroke="white" stroke-miterlimit="10" stroke-linejoin="round"/>
<path d="M12 8C13.1498 8.23175 14 9.03985 14 9.99982C14 10.9598 13.1498 11.7679 12 12" stroke="white" stroke-miterlimit="10" stroke-linecap="round" stroke-linejoin="round"/>
<path d="M13.333 5.55566C15.3179 6.40917 16.6663 8.08093 16.6663 10.0044C16.6663 11.9219 15.3245 13.5899 13.3495 14.4446" stroke="white" stroke-miterlimit="10" stroke-linecap="round" stroke-linejoin="round"/>
<path d="M15.5557 3.33325C17.5332 4.5622 18.889 7.0849 18.889 9.99992C18.889 12.9149 17.5332 15.438 15.5557 16.6666" stroke="white" stroke-miterlimit="10" stroke-linecap="round" stroke-linejoin="round"/>
</svg>
